<svg width="130" height="150" viewBox="0 0 130 150" fill="none" xmlns="http://www.w3.org/2000/svg">
<g id="&#208;&#187;&#208;&#190;&#208;&#179;&#208;&#190; &#208;&#186;&#209;&#128;&#208;&#176;&#209;&#129;&#208;&#189;&#209;&#139;&#208;&#185;2 1">
<g id="Group">
<path id="Vector" fill-rule="evenodd" clip-rule="evenodd" d="M65.3421 126.477C87.579 126.477 105.796 108.324 105.796 86.1648V46.2784H24.8026V86.0796C24.8026 108.324 43.0197 126.477 65.3421 126.477ZM29.7632 51.2216H100.836V86.0796C100.836 105.511 84.8421 121.449 65.3421 121.449C45.8421 121.449 29.8487 105.511 29.8487 86.0796V51.2216H29.7632Z" fill="white"/>
<path id="Vector_2" fill-rule="evenodd" clip-rule="evenodd" d="M70.1316 63.4091V59.9148H60.4671V75.0852H70.1316V63.4091Z" fill="white"/>
<path id="Vector_3" d="M103.572 17.4716H99.8947V17.6421H103.572V17.4716Z" fill="white"/>
<path id="Vector_4" d="M103.829 17.642H99.6382V17.8125H103.829V17.642Z" fill="white"/>
<path id="Vector_5" d="M104.086 17.8978H99.4671V18.0682H104.086V17.8978Z" fill="white"/>
<path id="Vector_6" d="M104.342 18.0682H99.2105V18.2386H104.342V18.0682Z" fill="white"/>
<path id="Vector_7" d="M102.888 16.7898H100.664V16.9602H102.888V16.7898Z" fill="white"/>
<path id="Vector_8" d="M102.632 16.5341H100.921V16.7046H102.632V16.5341Z" fill="white"/>
<path id="Vector_9" d="M103.23 16.9603H100.322V17.1307H103.23V16.9603Z" fill="white"/>
<path id="Vector_10" d="M103.401 17.2159H100.066V17.3864H103.401V17.2159Z" fill="white"/>
<path id="Vector_11" d="M104.513 18.3239H99.0395V18.4943H104.513V18.3239Z" fill="white"/>
<path id="Vector_12" d="M105.112 19.6875H98.3553V19.858H105.112V19.6875Z" fill="white"/>
<path id="Vector_13" d="M105.197 19.858H98.3553V20.0284H105.197V19.858Z" fill="white"/>
<path id="Vector_14" d="M104.599 18.5795H98.8684V18.75H104.599V18.5795Z" fill="white"/>
<path id="Vector_15" fill-rule="evenodd" clip-rule="evenodd" d="M104.941 20.4546H105.796V20.1136H97.671V20.4546H98.6974L98.0987 34.858H95.6184H95.0197V33.8352H95.3618V32.983H95.2763V33.2386H95.1053V32.8977H94.9342V33.2386H94.7632V32.8977H94.5921V33.2386H94.421V32.8977H94.3355V33.2386H94.1645V32.8977H93.9934V33.2386H93.6513V32.8977H93.4803V33.2386H93.3092V32.8977H93.1382V33.2386H92.9671V32.8977H92.8816V33.75H93.2237V34.7727H92.625H89.8026V33.75H90.1447V32.8977H90.0592V33.2386H89.8881V32.8977H89.7171V33.2386H89.546V32.8977H89.375V33.2386H89.2039V32.8977H89.1184V33.2386H88.9474V32.8977H88.7763V33.2386H88.5197V32.8977H88.3487V33.2386H88.1776V32.8977H88.0066V33.2386H87.8355V32.8977H87.75V33.75H88.0921V34.7727H87.3224H84.671V33.75H85.0132V32.8977H84.9276V33.2386H84.7566V32.8977H84.5855V33.2386H84.4145V32.8977H84.2434V33.2386H84.0724V32.8977H83.9013V33.2386H83.7303V32.8977H83.5592V33.2386H83.3881V32.8977H83.2171V33.2386H83.046V32.8977H82.875V33.2386H82.7039V32.8977H82.5329V33.75H82.875V34.7727H81.9342H79.796V32.7273V31.2784V28.9773H78.4276V26.25H77.4868H74.4079H74.0658H73.7237H73.3816H73.0395H72.6974H72.3553H72.0131C72.0131 23.1818 69.5329 20.7102 66.4539 20.5398V17.0455C66.7105 17.0455 66.8816 16.9602 67.1382 16.9602C67.3092 16.9602 67.5658 17.0455 67.6513 17.1307V17.3011C67.6513 17.3864 67.6513 17.3864 67.7368 17.3864C67.7368 17.3864 67.9079 17.3864 68.0789 17.3864C68.6776 17.3864 69.4474 17.3011 69.7039 16.875C69.7039 16.875 69.7039 16.875 69.7039 16.7898V14.7443C69.7039 14.7443 69.7039 14.6591 69.6184 14.6591H69.5329C69.2763 14.8296 68.9342 15 68.5066 15C68.3355 15 68.1645 15 68.0789 14.9148V14.7443V14.6591C67.9079 14.5739 67.6513 14.4886 67.3947 14.4886C66.9671 14.4886 66.5395 14.6591 66.2829 14.8296H66.0263V20.625C62.9474 20.7102 60.5526 23.2671 60.4671 26.3352H60.125H59.7829H59.4408H59.0987H58.7566H58.5855H58.2434H55.1645H54.2237V28.9773H52.8553V31.3636V32.8125V34.858H51.6579H49.6908V33.8352H50.0329V32.983H49.9474V33.2386H49.7763V32.8977H49.6053V33.2386H49.4342V32.8977H49.2632V33.2386H49.0921V32.8977H48.921V33.2386H48.75V32.8977H48.5789V33.2386H48.4079V32.8977H48.3224V33.2386H48.1513V32.8977H47.9803V33.2386H47.8092V32.8977H47.7237V33.75H48.0658V34.7727H47.2105H44.6447V33.75H44.9013V32.8977H44.8158V33.2386H44.6447V32.8977H44.4737V33.2386H44.3026V32.8977H44.1316V33.2386H43.9605V32.8977H43.7895V33.2386H43.6184V32.8977H43.4474V33.2386H43.1908V32.8977H43.0197V33.2386H42.8487V32.8977H42.6776V33.2386H42.5066V32.8977H42.421V33.75H42.7632V34.7727H42.1645H39.3421V33.75H39.6842V32.8977H39.5987V33.2386H39.4276V32.8977H39.2566V33.2386H39.0855V32.8977H38.9145V33.2386H38.7434V32.8977H38.6579V33.2386H38.4868V32.8977H38.3158V33.2386H38.0592V32.8977H37.8882V33.2386H37.7171V32.8977H37.5461V33.2386H37.375V32.8977H37.2039V33.75H37.5461V34.7727H37.2895H35.921H34.5526V31.7898V28.125V27.2727H33.8684V28.2102H33.1842V27.2727H32.5V28.2102H31.8158V27.2727H31.2171V28.2102H30.9605V26.3352C31.0461 26.3352 31.046 26.25 31.046 26.25V24.8864H31.2171C31.3026 24.8864 31.3026 24.8011 31.3026 24.8011V24.5455C31.3026 24.4602 31.2171 24.4602 31.2171 24.4602H31.046L30.6184 21.733L30.7039 21.6477V21.4773C30.7039 21.3921 30.6184 21.3921 30.6184 21.3921L30.4474 20.5398C30.4474 20.5398 30.4474 20.5398 30.4474 20.4546L30.2763 19.1761V19.0909V18.9205C30.2763 18.8352 30.1908 18.8352 30.1908 18.8352L30.1053 18.4943C30.1908 18.4943 30.1908 18.4091 30.1908 18.4091V18.1534C30.1908 18.0682 30.1053 18.0682 30.1053 18.0682H29.25C29.1645 18.0682 29.1645 18.1534 29.1645 18.1534V18.4091C29.1645 18.4943 29.1645 18.4943 29.25 18.4943L29.1645 18.8352C29.0789 18.8352 29.0789 18.9205 29.0789 18.9205V19.1761V19.2614L28.7368 21.3068C28.6513 21.3068 28.6513 21.3921 28.6513 21.3921V21.6477C28.6513 21.6477 28.6513 21.733 28.7368 21.733L28.3092 24.4602H28.1382C28.0526 24.4602 28.0526 24.5455 28.0526 24.5455V24.8011C28.0526 24.8864 28.1382 24.8864 28.1382 24.8864H28.2237V26.25C28.2237 26.3352 28.3092 26.3352 28.3092 26.3352V28.2102H28.0526V27.2727H27.3684V28.2102H26.6842V27.2727H26.0855V28.2102H25.4013V27.2727H24.7171V28.2102V31.875V37.9261V38.5227V43.0398H105.711L104.941 20.4546ZM29.7632 18.4943L29.9342 18.8352H29.7632V18.4943ZM29.7632 19.5171L30.0197 19.3466L30.1908 20.2841L29.7632 20.1136V19.5171ZM29.7632 20.3693L30.1053 20.5398L29.7632 20.7102V20.3693ZM29.7632 20.9659L30.1908 20.7102L30.3618 21.3068H29.7632V20.9659ZM29.7632 21.8182H30.3618L30.4474 22.4148L29.6776 22.0739V21.8182H29.7632ZM29.7632 22.2443L30.3618 22.5852L29.7632 22.8409V22.2443ZM29.5066 24.4602H28.3947L28.5658 23.608L29.5066 24.0341V24.4602ZM29.5066 23.8636L28.7368 23.5227L29.5066 23.1818V23.8636ZM29.5066 22.9261L28.6513 23.2671L28.9079 21.733L29.5066 22.0739V22.9261ZM29.5066 21.9034L29.3355 21.8182H29.5066V21.9034ZM29.5066 21.3068H29.25L29.5066 21.1364V21.3068ZM29.5066 20.8807L28.9934 21.3068L29.1645 20.0284L29.5066 20.1989V20.8807ZM29.5066 19.9432L29.3355 19.858L29.5066 19.7727V19.9432ZM29.5066 19.5171L29.25 19.6875L29.3355 19.2614H29.5066V19.5171ZM29.5066 18.8352H29.3355L29.4211 18.4943H29.5066V18.8352ZM29.7632 24.4602V24.2046L30.2763 24.4602H29.7632ZM30.7895 24.4602L29.7632 23.9489V23.0114L30.5329 22.6705L30.7895 24.4602ZM101.178 24.4602C101.178 24.1193 101.434 23.8636 101.776 23.8636C102.118 23.8636 102.375 24.1193 102.375 24.4602V25.1421H101.263V24.4602H101.178ZM101.092 25.3125H102.375V25.483H101.092V25.3125ZM102.289 29.1477V29.8296H101.178V29.1477C101.178 28.8068 101.434 28.5511 101.776 28.5511C102.033 28.4659 102.289 28.8068 102.289 29.1477ZM101.092 29.9148H102.375V30.0852H101.092V29.9148ZM102.888 37.7557H100.664V36.3921C100.664 35.7102 101.178 35.1989 101.776 35.1989C102.375 35.1989 102.888 35.7102 102.888 36.3921V37.7557Z" fill="white"/>
<path id="Vector_16" d="M105.026 19.4318H98.4408V19.6023H105.026V19.4318Z" fill="white"/>
<path id="Vector_17" d="M105.026 19.1761H98.5263V19.3466H105.026V19.1761Z" fill="white"/>
<path id="Vector_18" d="M104.77 18.75H98.7829V18.9205H104.77V18.75Z" fill="white"/>
<path id="Vector_19" d="M104.855 19.0057H98.6118V19.1761H104.855V19.0057Z" fill="white"/>
<path id="Vector_20" fill-rule="evenodd" clip-rule="evenodd" d="M49.2632 97.5H60.5526C62.2632 97.5 64.3158 96.4773 65.3421 95.2841C66.454 96.4773 68.3355 97.5 70.1316 97.5H81.4211C86.7237 97.5 91 93.2386 91 87.9545V59.8295H81.3355V63.4091V80.2841V84.4602C81.3355 86.4204 79.7105 88.0398 77.7434 88.0398H73.6382C71.6711 88.0398 70.0461 86.4204 70.0461 84.4602V80.2841V78.6648V76.7045H56.1908V85.5682C56.6184 85.5682 57.1316 85.142 57.3026 84.6307C58.0724 81.9034 60.125 80.7102 61.3224 80.7102C66.7961 81.1363 67.4803 79.6875 68.25 79.0057C68.079 80.4545 68.9342 84.1193 65.4276 85.5682C63.0329 86.5909 61.6645 85.9943 60.125 85.7386C59.6119 87.017 58.329 87.9545 56.875 87.9545H52.7697C50.8026 87.9545 49.1776 86.3352 49.1776 84.375V80.1988V77.2159V77.0454V75V73.7216V72.9545C49.1776 70.9943 50.8026 69.375 52.7697 69.375H56.704V59.9148H49.1776C43.875 59.9148 39.5987 64.1761 39.5987 69.4602V71.5057V77.3011V88.0398C39.6842 93.2386 43.9605 97.5 49.2632 97.5Z" fill="white"/>
<path id="Vector_21" fill-rule="evenodd" clip-rule="evenodd" d="M64.0592 81.733C59.0132 82.0739 57.7303 84.8012 57.1316 85.6534H57.5592C59.4408 83.2671 62.3487 82.1591 64.0592 81.733Z" fill="white"/>
<path id="Vector_22" fill-rule="evenodd" clip-rule="evenodd" d="M16.4211 60.9375H19.2434V62.8125L18.8158 62.6421V61.3637H16.4211V60.9375ZM16.4211 63.75H19.2434V65.1137C19.2434 65.2841 19.2434 65.3693 19.1579 65.4546C19.0724 65.5398 19.0724 65.625 18.9868 65.7103C18.9013 65.7955 18.8158 65.7955 18.7303 65.8807C18.6447 65.8807 18.4737 65.9659 18.3882 65.9659C18.2171 65.9659 18.1316 65.9659 18.0461 65.8807C17.9605 65.8807 17.875 65.7955 17.7895 65.7103C17.7039 65.625 17.6184 65.5398 17.6184 65.4546C17.5329 65.3693 17.5329 65.1989 17.5329 65.1137V64.1762H16.5066V63.75H16.4211ZM17.7895 64.2614V65.0284C17.7895 65.1989 17.7895 65.3693 17.875 65.4546C17.9605 65.5398 18.0461 65.5398 18.2171 65.5398C18.3882 65.5398 18.4737 65.4546 18.5592 65.3693C18.6447 65.2841 18.6447 65.1137 18.6447 65.0284V64.2614H17.7895ZM17.7895 66.9034H17.875C18.0461 66.9034 18.2171 66.9034 18.3882 66.9887C18.5592 67.0739 18.7303 67.1591 18.8158 67.2443C18.9013 67.3296 18.9868 67.5 19.0724 67.6705C19.1579 67.8409 19.1579 68.0114 19.1579 68.1818C19.1579 68.3523 19.1579 68.5228 19.0724 68.6932C18.9868 68.8637 18.9013 69.0341 18.8158 69.1193C18.7303 69.2046 18.5592 69.2898 18.3882 69.375C18.2171 69.4603 18.0461 69.4603 17.875 69.4603H17.7895C17.6184 69.4603 17.3618 69.4603 17.1908 69.375C17.0197 69.2898 16.8487 69.2046 16.7632 69.1193C16.5921 69.0341 16.5066 68.8637 16.4211 68.6932C16.3355 68.5228 16.3355 68.3523 16.3355 68.0966C16.3355 67.8409 16.3355 67.6705 16.4211 67.5C16.5066 67.3296 16.5921 67.1591 16.7632 67.0739C16.9342 66.9887 17.0197 66.9034 17.1908 66.8182C17.3618 66.9034 17.5329 66.9034 17.7895 66.9034ZM17.7895 67.3296C17.6184 67.3296 17.5329 67.3296 17.3618 67.4148C17.2763 67.4148 17.1053 67.5 17.0197 67.5853C16.9342 67.6705 16.8487 67.7557 16.7632 67.8409C16.6776 67.9262 16.6776 68.0966 16.6776 68.2671C16.6776 68.4375 16.6776 68.608 16.7632 68.6932C16.8487 68.7784 16.8487 68.8637 16.9342 68.9489C17.0197 69.0341 17.1053 69.0341 17.2763 69.1193C17.3618 69.1193 17.5329 69.2046 17.7039 69.2046H17.7895C18.0461 69.2046 18.3026 69.1193 18.4737 68.9489C18.6447 68.7784 18.7303 68.608 18.7303 68.2671C18.7303 68.0114 18.6447 67.7557 18.4737 67.5853C18.3882 67.4148 18.1316 67.3296 17.875 67.3296H17.7895ZM16.7632 70.6534L17.0197 70.9091C16.9342 70.9943 16.8487 71.0796 16.7632 71.1648C16.7632 71.25 16.6776 71.3353 16.6776 71.5057C16.6776 71.6762 16.6776 71.8466 16.7632 71.9318C16.8487 72.0171 16.9342 72.1023 17.1053 72.1023C17.1908 72.1023 17.2763 72.1023 17.3618 72.0171C17.4474 72.0171 17.4474 71.9318 17.4474 71.9318C17.4474 71.8466 17.5329 71.8466 17.5329 71.7614C17.5329 71.6762 17.5329 71.5909 17.5329 71.5057V71.3353H17.9605V71.5909C17.9605 71.7614 17.9605 71.8466 18.0461 71.9318C18.1316 72.0171 18.2171 72.1023 18.3882 72.1023C18.4737 72.1023 18.5592 72.1023 18.6447 72.0171C18.7303 71.9318 18.7303 71.8466 18.7303 71.6762C18.7303 71.5909 18.7303 71.5909 18.7303 71.5057C18.7303 71.4205 18.7303 71.4205 18.7303 71.4205C18.7303 71.4205 18.7303 71.3353 18.6447 71.3353L18.5592 71.25L18.8158 70.9091C18.9868 70.9943 19.0724 71.1648 19.1579 71.25C19.2434 71.4205 19.2434 71.5909 19.2434 71.7614C19.2434 72.0171 19.1579 72.2728 19.0724 72.358C18.9868 72.4432 18.7303 72.6137 18.5592 72.6137C18.4737 72.6137 18.4737 72.6137 18.3882 72.6137C18.3026 72.6137 18.3026 72.6137 18.2171 72.5284C18.1316 72.5284 18.1316 72.4432 18.0461 72.4432C17.9605 72.4432 17.9605 72.358 17.9605 72.358C17.875 72.5284 17.7895 72.6137 17.7039 72.6137C17.5329 72.4432 17.3618 72.4432 17.1908 72.4432C17.0197 72.4432 16.9342 72.4432 16.7632 72.358C16.6776 72.2728 16.5921 72.2728 16.5066 72.1023C16.4211 72.0171 16.4211 71.9318 16.3355 71.8466C16.3355 71.7614 16.25 71.5909 16.25 71.5057C16.25 71.4205 16.25 71.25 16.25 71.1648C16.25 71.0796 16.25 70.9943 16.3355 70.9091C16.3355 70.8239 16.4211 70.7387 16.5066 70.7387C16.5921 70.7387 16.6776 70.6534 16.7632 70.6534ZM16.4211 73.5512H19.2434V73.9773H18.1316V75.3409H19.2434V75.8523H16.4211V75.4262H17.7039V74.0625H16.4211V73.5512ZM16.4211 77.0455H19.2434V79.0909L18.8158 78.9205V77.4716H18.1316V78.8353H17.7039V77.4716H16.8487V79.0909H16.4211V77.0455ZM16.4211 80.2841H19.2434V80.7103H18.1316V82.0739H19.2434V82.5H16.4211V82.0739H17.7039V80.7103H16.4211V80.2841ZM17.7895 83.608H17.9605C18.1316 83.608 18.3882 83.608 18.4737 83.6932C18.6447 83.7784 18.8158 83.8637 18.9013 83.9489C18.9868 84.0341 19.0724 84.2046 19.1579 84.375C19.2434 84.5455 19.2434 84.7159 19.2434 84.9716C19.2434 85.1421 19.2434 85.3125 19.1579 85.483C19.0724 85.6534 18.9868 85.7387 18.9013 85.9091L18.5592 85.5682C18.6447 85.483 18.7303 85.3978 18.7303 85.3125C18.7303 85.2273 18.8158 85.1421 18.8158 84.9716C18.8158 84.7159 18.7303 84.4603 18.5592 84.375C18.3882 84.2046 18.2171 84.2046 17.875 84.2046H17.7039C17.5329 84.2046 17.3618 84.2046 17.2763 84.2046C17.1908 84.2046 17.0197 84.2898 16.9342 84.2898C16.8487 84.375 16.7632 84.4603 16.7632 84.5455C16.6776 84.6307 16.6776 84.8012 16.6776 84.9716C16.6776 85.0568 16.6776 85.2273 16.6776 85.3125C16.6776 85.3978 16.7632 85.483 16.8487 85.5682L16.6776 85.8239C16.5921 85.7387 16.4211 85.5682 16.4211 85.3978C16.3355 85.2273 16.3355 85.0568 16.3355 84.8864C16.3355 84.6307 16.3355 84.4603 16.4211 84.2898C16.5066 84.1193 16.5921 83.9489 16.6776 83.8637C16.7632 83.7784 16.9342 83.6932 17.1053 83.608C17.3618 83.608 17.5329 83.608 17.7895 83.608ZM16.3355 86.9318L19.1579 86.8466V87.2728H17.9605V87.5284L19.1579 88.2955V88.8068L17.7895 87.9546L16.4211 89.0625V88.5512L17.6184 87.6137V87.358H16.3355V86.9318ZM16.5066 90.1705L19.3289 90V90.4262L17.2763 90.5966L19.4145 91.7898V92.2159L16.6776 92.4716V92.0455L18.7303 91.875L16.5066 90.6818V90.1705ZM16.9342 93.6648L19.6711 93.2387L19.7566 93.6648L17.7039 93.9205L19.9276 95.0284L20.0132 95.4546L17.2763 95.8807L17.1908 95.4546L19.2434 95.1989L16.9342 94.0909V93.6648ZM20.4408 93.6648C20.3553 93.6648 20.2697 93.6648 20.1842 93.75C20.0987 93.75 20.0987 93.8353 20.0132 93.9205C20.0132 94.0057 19.9276 94.0909 19.9276 94.0909C19.9276 94.1762 19.9276 94.2614 19.9276 94.3466C19.9276 94.4318 19.9276 94.5171 20.0132 94.5171C20.0132 94.6023 20.0987 94.6023 20.0987 94.6875C20.1842 94.7728 20.1842 94.7728 20.2697 94.7728C20.3553 94.7728 20.4408 94.7728 20.5263 94.7728V94.5171C20.4408 94.5171 20.3553 94.5171 20.3553 94.4319C20.3553 94.3466 20.2697 94.3466 20.2697 94.2614C20.2697 94.1762 20.2697 94.0909 20.2697 94.0057C20.2697 93.9205 20.3553 93.9205 20.4408 93.9205V93.6648ZM18.8158 101.506L21.4671 100.568L22.0658 102.273H21.6382L21.2105 101.08L18.9868 101.847L18.8158 101.506ZM21.0395 103.551H21.125C21.2961 103.466 21.4671 103.466 21.6382 103.466C21.8092 103.466 21.9803 103.466 22.1513 103.551C22.3224 103.636 22.4079 103.722 22.5789 103.807C22.6645 103.977 22.8355 104.063 22.8355 104.318C22.9211 104.489 22.9211 104.659 22.9211 104.83C22.9211 105 22.9211 105.17 22.8355 105.341C22.75 105.511 22.6645 105.597 22.5789 105.767C22.4934 105.852 22.3224 106.023 22.1513 106.023H22.0658C21.8947 106.108 21.6382 106.108 21.4671 106.193C21.2961 106.193 21.125 106.193 20.9539 106.108C20.7829 106.023 20.6118 105.938 20.5263 105.852C20.3553 105.682 20.2697 105.511 20.1842 105.341C20.0987 105.17 20.0987 104.915 20.0987 104.744C20.0987 104.574 20.1842 104.403 20.1842 104.233C20.2697 104.063 20.3553 103.977 20.5263 103.807C20.6118 103.722 20.7829 103.636 21.0395 103.551ZM21.2105 103.977C21.0395 104.063 20.9539 104.063 20.8684 104.148C20.7829 104.233 20.6974 104.318 20.6118 104.403C20.5263 104.489 20.5263 104.574 20.5263 104.744C20.5263 104.83 20.5263 105 20.6118 105.17C20.6974 105.341 20.7829 105.426 20.8684 105.511C20.9539 105.597 21.0395 105.682 21.2105 105.682C21.2961 105.682 21.4671 105.682 21.5526 105.682C21.7237 105.682 21.8092 105.597 21.9803 105.597H22.0658C22.3224 105.511 22.4934 105.341 22.5789 105.17C22.6645 105 22.6645 104.744 22.5789 104.489C22.4934 104.233 22.3224 104.063 22.0658 103.977C21.8947 103.892 21.6382 103.892 21.3816 103.977H21.2105ZM22.4079 106.875L22.5789 106.79C22.75 106.705 22.9211 106.619 23.0921 106.619C23.2632 106.619 23.4342 106.619 23.6053 106.619C23.7763 106.705 23.8618 106.79 24.0329 106.875C24.1184 106.96 24.2895 107.131 24.375 107.301C24.4605 107.472 24.4605 107.642 24.5461 107.727C24.5461 107.898 24.5461 108.068 24.4605 108.239L24.0329 108.068C24.0329 107.983 24.1184 107.813 24.0329 107.727C24.0329 107.642 23.9474 107.557 23.9474 107.386C23.7763 107.131 23.6908 106.96 23.4342 106.96C23.2632 106.875 23.0066 106.96 22.75 107.045L22.6645 107.131C22.4934 107.216 22.4079 107.301 22.3224 107.386C22.2368 107.472 22.1513 107.557 22.0658 107.642C21.9803 107.727 21.9803 107.813 21.9803 107.983C21.9803 108.068 22.0658 108.239 22.1513 108.409C22.2368 108.494 22.2368 108.58 22.3224 108.665C22.4079 108.75 22.4934 108.75 22.5789 108.835L22.4934 109.261C22.3224 109.176 22.1513 109.176 22.0658 109.006C21.9803 108.92 21.8092 108.75 21.8092 108.58C21.7237 108.409 21.6382 108.153 21.6382 107.983C21.6382 107.813 21.6382 107.642 21.7237 107.472C21.8092 107.301 21.8947 107.216 21.9803 107.045C22.0658 107.131 22.2368 106.96 22.4079 106.875ZM25.0592 109.006L24.0329 110.54C24.0329 110.625 23.9474 110.625 23.9474 110.71C23.9474 110.795 23.9474 110.881 23.9474 110.881H23.6053C23.5197 110.881 23.5197 110.881 23.4342 110.881L23.3487 110.795L23.2632 110.71L22.9211 110.881C22.9211 110.881 22.9211 110.966 22.9211 111.051C22.9211 111.136 22.9211 111.136 23.0066 111.222C23.0066 111.307 23.0921 111.307 23.1776 111.392C23.2632 111.392 23.2632 111.477 23.3487 111.477C23.4342 111.477 23.4342 111.477 23.5197 111.477C23.6053 111.477 23.6053 111.477 23.6908 111.477L26.2566 111.222L26.1711 110.795L24.4605 110.966V110.881V110.795L25.4013 109.432L25.0592 109.006ZM24.7171 113.011C24.7171 113.097 24.8026 113.097 24.8026 113.097L24.8882 113.182H24.9737H25.0592H25.1447H25.2303C25.3158 113.182 25.4013 113.097 25.5724 113.097C25.6579 113.097 25.7434 113.011 25.8289 112.926C26 112.841 26.1711 112.67 26.4276 112.585L27.0263 112.159L28.0526 113.608L26.0855 114.972L26.2566 115.227L25.4868 115.739L25.2303 115.398L25.6579 115.057L24.6316 113.608L24.2039 113.949L23.9474 113.608L24.7171 113.011ZM25.1447 113.608L25.8289 114.545L27.4539 113.352L26.9408 112.67L26.6842 112.841C26.5987 112.841 26.5987 112.926 26.5132 112.926C26.4276 112.926 26.4276 113.011 26.3421 113.011C26.2566 113.011 26.2566 113.097 26.1711 113.097C26.0855 113.097 26.0855 113.182 26 113.182C25.8289 113.267 25.7434 113.267 25.5724 113.352C25.4868 113.352 25.4013 113.438 25.4013 113.438C25.2303 113.523 25.2303 113.608 25.1447 113.608ZM26.5132 116.08L26.8553 116.42L27.625 116.165L28.3092 117.017L27.8816 117.784L28.2237 118.125L29.6776 115.483L29.3355 115.057L26.5132 116.08ZM27.9671 116.08L28.4803 116.761L28.9934 115.909L29.1645 115.653L28.9079 115.824L27.9671 116.08ZM28.9079 118.977L30.9605 117.102L31.9013 118.125C31.9868 118.21 32.0724 118.295 32.0724 118.381C32.0724 118.466 32.1579 118.551 32.1579 118.722C32.1579 118.807 32.1579 118.892 32.0724 119.063C31.9868 119.148 31.9868 119.233 31.8158 119.318C31.7303 119.403 31.6447 119.489 31.5592 119.489C31.4737 119.574 31.3882 119.574 31.2171 119.574C31.1316 119.574 31.0461 119.574 30.875 119.489C30.7895 119.489 30.7039 119.403 30.6184 119.318L30.0197 118.636L29.25 119.318L28.9079 118.977ZM30.2763 118.295L30.7895 118.892C30.875 119.063 31.0461 119.063 31.1316 119.063C31.2171 119.063 31.3882 118.977 31.4737 118.892C31.5592 118.807 31.6447 118.636 31.6447 118.551C31.6447 118.466 31.5592 118.295 31.4737 118.21L30.9605 117.614L30.2763 118.295ZM31.9868 120.17L32.0724 120.085C32.2434 119.915 32.3289 119.83 32.5 119.744C32.6711 119.659 32.8421 119.659 32.9276 119.574C33.0987 119.574 33.2697 119.574 33.4408 119.659C33.6118 119.744 33.7829 119.83 33.9539 120C34.0395 120.085 34.2105 120.256 34.2961 120.341C34.3816 120.426 34.3816 120.682 34.4671 120.767H34.0395C34.0395 120.682 34.0395 120.511 33.9539 120.426C33.8684 120.341 33.8684 120.256 33.7829 120.17C33.6118 120 33.3553 119.915 33.1842 119.915C33.0132 119.915 32.7566 120.085 32.5855 120.256L32.5 120.341C32.4145 120.426 32.3289 120.597 32.2434 120.682C32.1579 120.767 32.1579 120.938 32.1579 121.023C32.1579 121.108 32.1579 121.193 32.2434 121.364C32.3289 121.449 32.4145 121.619 32.5 121.705C32.5855 121.79 32.6711 121.875 32.7566 121.875C32.8421 121.96 32.9276 121.96 33.0987 121.96V122.386C32.9276 122.386 32.7566 122.386 32.5855 122.301C32.4145 122.216 32.3289 122.131 32.1579 122.045C31.9868 121.875 31.9013 121.705 31.8158 121.534C31.7303 121.364 31.7303 121.193 31.7303 121.023C31.7303 120.852 31.8158 120.682 31.9013 120.511C31.7303 120.511 31.8158 120.341 31.9868 120.17ZM34.8947 121.534L35.5789 122.131L34.0395 123.92L34.3816 124.176L35.9211 122.386L36.5197 122.898L36.8618 122.642L35.1513 121.193L34.8947 121.534ZM35.9211 125.369L37.5461 123.153L38.4868 123.835C38.5724 123.92 38.6579 124.006 38.7434 124.091C38.8289 124.176 38.8289 124.261 38.9145 124.347C38.9145 124.432 38.9145 124.517 38.9145 124.602C38.9145 124.688 38.8289 124.773 38.7434 124.858C38.5724 125.028 38.4013 125.114 38.2303 125.114C38.3158 125.284 38.3158 125.369 38.3158 125.54C38.3158 125.71 38.2303 125.795 38.1447 125.966C38.0592 126.051 37.9737 126.136 37.8882 126.222C37.8026 126.307 37.7171 126.307 37.5461 126.307C37.4605 126.307 37.375 126.307 37.2039 126.222C37.1184 126.222 37.0329 126.136 36.8618 126.051L35.9211 125.369ZM36.5197 125.284L37.2039 125.795C37.375 125.881 37.4605 125.966 37.5461 125.966C37.6316 125.966 37.7171 125.881 37.8026 125.795C37.8882 125.71 37.8882 125.54 37.8882 125.455C37.8882 125.369 37.8026 125.284 37.6316 125.199L36.9474 124.688L36.5197 125.284ZM37.2895 124.347L37.8882 124.773C37.9737 124.858 38.0592 124.858 38.1447 124.858C38.2303 124.858 38.3158 124.773 38.4013 124.688C38.4868 124.602 38.4868 124.517 38.4868 124.432C38.4868 124.347 38.4013 124.261 38.3158 124.261L37.7171 123.835L37.2895 124.347ZM38.6579 127.33L40.3684 128.438L40.625 128.097L39.2566 127.244L39.6842 126.563L40.7961 127.244L41.0526 126.903L39.9408 126.222L40.2829 125.625L41.5658 126.392L41.9079 126.136L40.1974 125.028L38.6579 127.33ZM41.3947 128.949L42.7632 126.477L43.1908 126.733L42.6776 127.67L43.875 128.267L44.3882 127.33L44.8158 127.585L43.4474 130.057L43.0197 129.801L43.6184 128.693L42.421 128.097L41.8224 129.205L41.3947 128.949ZM44.4737 130.568L44.9013 130.739L45.4145 129.545L46.6118 130.057L46.0987 131.25L46.5263 131.42L47.6382 128.864L47.2105 128.693L46.7829 129.716L45.5855 129.205L46.0132 128.182L45.5855 128.011L44.4737 130.568ZM47.6382 131.932L48.4934 129.29L48.9211 129.46L48.5789 130.568L49.4342 130.824C49.6908 130.909 49.8618 131.08 49.9474 131.25C50.0329 131.42 50.0329 131.676 49.9474 131.932C49.8618 132.102 49.8618 132.188 49.7763 132.273C49.6908 132.358 49.6053 132.443 49.5197 132.443C49.4342 132.443 49.3487 132.528 49.1776 132.528C49.0921 132.528 48.9211 132.528 48.8355 132.443L47.6382 131.932ZM48.2368 131.676L49.0066 131.932C49.1776 132.017 49.2632 132.017 49.3487 131.932C49.4342 131.847 49.5197 131.761 49.5197 131.676C49.5197 131.506 49.5197 131.42 49.5197 131.335C49.5197 131.25 49.3487 131.165 49.1776 131.165L48.4079 130.909L48.2368 131.676ZM49.9474 132.699L50.375 132.869L51.2303 130.227L50.8026 130.057L49.9474 132.699ZM51.5724 133.21L52.3421 130.568L52.7697 130.653L52.1711 132.614L54.0526 130.994L54.4803 131.08L53.7105 133.722L53.2829 133.636L53.8816 131.591L52 133.21H51.5724ZM53.0263 130.057C53.0263 130.142 53.0263 130.227 53.0263 130.313C53.0263 130.398 53.1118 130.483 53.1118 130.483C53.1974 130.568 53.1974 130.568 53.2829 130.653C53.3684 130.653 53.4539 130.739 53.4539 130.739C53.5395 130.739 53.625 130.739 53.7105 130.739C53.7961 130.739 53.8816 130.739 53.8816 130.739C53.9671 130.739 53.9671 130.653 54.0526 130.653C54.1382 130.568 54.1382 130.568 54.1382 130.483L53.8816 130.398C53.8816 130.483 53.7961 130.483 53.7105 130.568C53.625 130.568 53.5395 130.568 53.4539 130.568C53.3684 130.568 53.2829 130.483 53.2829 130.483C53.1974 130.398 53.1974 130.398 53.2829 130.313L53.0263 130.057ZM59.5263 134.83L59.7829 132.017L60.2105 132.102L60.125 133.21L61.4934 133.381L61.5789 132.273L62.0066 132.358L61.75 135.17L61.3224 135.085L61.4079 133.807L60.0395 133.636L59.9539 134.915L59.5263 134.83ZM62.9474 135.17L63.1184 132.358L65.171 132.443L65 132.869L63.5461 132.784V133.466L64.9145 133.551V133.977L63.5461 133.892L63.4605 134.744L65.0855 134.83V135.256L62.9474 135.17ZM66.0263 133.807C66.0263 133.551 66.0263 133.466 66.1118 133.295C66.1118 133.125 66.1974 133.04 66.2829 132.955C66.3684 132.869 66.4539 132.784 66.5395 132.699C66.625 132.614 66.7961 132.614 66.9671 132.614C67.0526 132.614 67.0526 132.614 67.1382 132.614C67.2237 132.614 67.2237 132.614 67.3092 132.614V132.273H67.7368V132.614C67.8224 132.614 67.8224 132.614 67.9079 132.528C67.9934 132.528 67.9934 132.528 68.0789 132.528C68.25 132.528 68.421 132.528 68.5066 132.614C68.5921 132.699 68.7632 132.699 68.8487 132.869C68.9342 132.955 69.0197 133.04 69.0197 133.21C69.1053 133.381 69.1053 133.466 69.1053 133.636V133.722C69.1053 133.892 69.1053 133.977 69.0197 134.148C69.0197 134.318 68.9342 134.403 68.8487 134.489C68.7632 134.574 68.6776 134.659 68.5921 134.744C68.5066 134.83 68.3355 134.83 68.1645 134.83C68.0789 134.83 68.0789 134.83 67.9934 134.83C67.9079 134.83 67.9079 134.83 67.8224 134.83V135.256H67.3947V134.83C67.3092 134.83 67.3092 134.83 67.2237 134.915C67.1382 134.915 67.1382 134.915 67.0526 134.915C66.8816 134.915 66.7105 134.915 66.625 134.83C66.5395 134.744 66.3684 134.744 66.2829 134.574C66.1974 134.489 66.1118 134.403 66.1118 134.233C66.0263 134.063 66.0263 133.977 66.0263 133.807ZM66.4539 133.807C66.4539 133.892 66.4539 133.977 66.5395 134.063C66.5395 134.148 66.625 134.233 66.625 134.233C66.7105 134.318 66.7105 134.318 66.796 134.403C66.8816 134.403 66.9671 134.489 67.0526 134.403C67.1382 134.403 67.1382 134.403 67.2237 134.403C67.3092 134.403 67.3092 134.403 67.3947 134.318V133.04C67.3092 133.04 67.2237 132.955 67.1382 132.955C67.0526 132.955 66.9671 132.955 66.8816 133.04C66.796 133.04 66.7961 133.125 66.7105 133.21C66.625 133.295 66.625 133.295 66.625 133.381C66.625 133.466 66.625 133.551 66.625 133.636L66.4539 133.807ZM67.7368 134.318C67.8224 134.318 67.8224 134.318 67.9079 134.318C67.9934 134.318 67.9934 134.318 68.0789 134.318C68.1645 134.318 68.25 134.318 68.3355 134.233C68.4211 134.233 68.421 134.148 68.5066 134.063C68.5066 133.977 68.5921 133.977 68.5921 133.892C68.5921 133.807 68.5921 133.722 68.5921 133.636V133.551C68.5921 133.466 68.5921 133.381 68.5921 133.295C68.5921 133.21 68.5066 133.125 68.5066 133.125C68.421 133.04 68.4211 133.04 68.3355 132.955C68.25 132.955 68.1645 132.955 68.0789 132.955C67.9934 132.955 67.9079 132.955 67.8224 133.04L67.7368 134.318ZM69.7039 132.614L69.6184 132.188L71.8421 131.932L71.7566 132.358L70.9868 132.443L71.2434 134.83L70.8158 134.915L70.5592 132.528L69.7039 132.614ZM73.2105 134.659L73.125 134.403C73.2105 134.403 73.2105 134.403 73.296 134.318L73.3816 134.233L73.8947 133.295C73.6382 133.295 73.4671 133.295 73.296 133.21C73.125 133.125 73.0395 132.955 72.9539 132.699C72.9539 132.528 72.9539 132.443 72.9539 132.358C72.9539 132.273 73.0395 132.188 73.125 132.102C73.2105 132.017 73.2961 131.932 73.3816 131.932C73.4671 131.847 73.5526 131.847 73.7237 131.847L75.0066 131.591L75.6053 134.318L75.1776 134.403L74.921 133.21L74.6645 133.295C74.5789 133.295 74.5789 133.295 74.4934 133.381L74.4079 133.466L73.8947 134.489C73.8947 134.574 73.8092 134.659 73.7237 134.659C73.6382 134.744 73.5526 134.744 73.4671 134.83H73.3816C73.2105 134.659 73.2105 134.659 73.2105 134.659ZM73.3816 132.528C73.3816 132.699 73.4671 132.784 73.5526 132.784C73.6382 132.784 73.7237 132.869 73.8947 132.784L74.75 132.614L74.5789 131.847L73.7237 132.017C73.5526 132.017 73.4671 132.102 73.3816 132.188C73.2961 132.273 73.2961 132.358 73.3816 132.528ZM76.7171 133.892L75.9474 131.25L76.375 131.165L76.6316 132.188L77.9145 131.847L77.6579 130.824L78.0855 130.739L78.8553 133.381L78.4276 133.466L78.0855 132.273L76.8026 132.614L77.1447 133.807L76.7171 133.892ZM79.4539 131.676V131.591C79.3684 131.42 79.3684 131.25 79.3684 131.08C79.3684 130.909 79.4539 130.739 79.4539 130.568C79.5395 130.398 79.625 130.313 79.7961 130.142C79.9671 130.057 80.0526 129.972 80.3092 129.886C80.4803 129.801 80.6513 129.801 80.8224 129.801C80.9934 129.801 81.1645 129.886 81.3355 129.886C81.5066 129.972 81.5921 130.057 81.7632 130.227C81.8487 130.398 81.9342 130.483 82.0197 130.739V130.824C82.1053 130.994 82.1053 131.25 82.1053 131.42C82.1053 131.591 82.1053 131.761 82.0197 131.932C81.9342 132.102 81.8487 132.273 81.6776 132.358C81.5066 132.443 81.3355 132.614 81.1645 132.614C80.9934 132.699 80.7368 132.699 80.5658 132.699C80.3947 132.699 80.2237 132.614 80.0526 132.528C79.8816 132.443 79.796 132.358 79.625 132.188C79.625 132.017 79.5395 131.847 79.4539 131.676ZM79.8816 131.506C79.9671 131.676 79.9671 131.761 80.0526 131.847C80.1382 131.932 80.2237 132.017 80.3092 132.102C80.3947 132.188 80.4803 132.188 80.6513 132.188C80.7368 132.188 80.9079 132.188 81.0789 132.102C81.25 132.017 81.3355 132.017 81.421 131.932C81.5066 131.847 81.5921 131.761 81.5921 131.676C81.5921 131.591 81.6776 131.42 81.5921 131.335C81.5921 131.165 81.5066 131.08 81.5066 130.909V130.824C81.4211 130.568 81.25 130.398 81.0789 130.227C80.9079 130.142 80.6513 130.142 80.3947 130.227C80.1382 130.313 79.9671 130.483 79.8816 130.653C79.7961 130.824 79.7961 131.08 79.8816 131.335V131.506ZM83.5592 131.676L82.4474 129.119L82.875 128.949L83.7303 130.824L84.1579 128.352L84.5855 128.182L85.6974 130.739L85.2697 130.909L84.4145 129.034L83.9868 131.506L83.5592 131.676ZM82.6184 128.352C82.6184 128.438 82.7039 128.523 82.7895 128.523C82.875 128.608 82.875 128.608 82.9605 128.608C83.0461 128.608 83.1316 128.608 83.1316 128.608C83.2171 128.608 83.3026 128.608 83.3026 128.523C83.3882 128.523 83.3882 128.438 83.4737 128.438C83.5592 128.352 83.5592 128.352 83.6447 128.267C83.6447 128.182 83.7303 128.182 83.7303 128.097C83.7303 128.011 83.7303 127.926 83.6447 127.841L83.3882 127.926C83.3882 128.011 83.3882 128.097 83.3882 128.097C83.3026 128.182 83.3026 128.182 83.2171 128.267C83.1316 128.267 83.0461 128.352 82.9605 128.352C82.875 128.352 82.875 128.267 82.7895 128.267L82.6184 128.352ZM89.375 126.136L89.1184 125.795L91.0855 124.602L91.1711 125.028L90.4868 125.455L91.7697 127.5L91.3421 127.756L90.0592 125.71L89.375 126.136ZM93.3947 126.307L95.0197 125.114L94.7632 124.773L93.4803 125.71L92.9671 125.028L94.0789 124.261L93.8224 123.92L92.7105 124.688L92.2829 124.091L93.4803 123.239L93.3092 122.813L91.5987 124.006L93.3947 126.307ZM95.9605 124.432L95.7895 122.642L94.25 122.301L94.5066 121.96L95.4474 122.131L95.7895 122.301L95.7039 121.875L95.6184 120.938L96.0461 120.767L96.2171 122.301L98.0132 122.642L97.5855 122.983L96.3882 122.727L96.2171 122.642L96.3026 122.898L96.3882 124.091L95.9605 124.432ZM98.7829 121.875L99.125 121.534L98.2697 120.597L99.2105 119.659L100.066 120.597L100.408 120.256L98.5263 118.21L98.1842 118.551L98.9539 119.318L98.0132 120.256L97.2434 119.489L96.9013 119.83L98.7829 121.875ZM101.263 119.489L99.2105 117.614L99.5526 117.273L101.092 118.636L100.493 116.25L100.836 115.909L102.888 117.784L102.546 118.125L101.007 116.761L101.605 119.233L101.263 119.489ZM101.947 115.824C102.033 115.909 102.204 115.994 102.289 115.994C102.375 115.994 102.546 115.994 102.632 115.994C102.717 115.994 102.888 115.909 102.974 115.824C103.059 115.739 103.145 115.653 103.23 115.568C103.316 115.483 103.401 115.398 103.401 115.227C103.401 115.142 103.487 114.972 103.487 114.801L104.428 115.568L104.684 115.227L102.461 113.523L102.204 113.864L103.145 114.545C103.145 114.716 103.145 114.801 103.145 114.972C103.145 115.142 103.059 115.227 102.974 115.313C102.888 115.398 102.888 115.398 102.803 115.483C102.717 115.483 102.717 115.483 102.632 115.483C102.546 115.483 102.461 115.483 102.461 115.398C102.375 115.398 102.289 115.313 102.289 115.313L101.605 114.801L101.349 115.142L101.947 115.824ZM105.454 114.29L103.145 112.756L104.342 111.051L104.599 111.392L103.743 112.585L104.342 113.011L105.112 111.903L105.454 112.159L104.684 113.267L105.368 113.778L106.224 112.5L106.566 112.756L105.454 114.29ZM105.967 110.966C106.138 111.051 106.309 111.136 106.48 111.222C106.651 111.222 106.822 111.307 106.993 111.222C107.164 111.222 107.336 111.136 107.421 111.051C107.592 110.966 107.678 110.795 107.763 110.54C107.849 110.369 107.934 110.199 107.934 110.114C107.934 109.943 107.934 109.773 107.849 109.602L107.421 109.688C107.421 109.773 107.507 109.943 107.421 110.028C107.421 110.114 107.336 110.199 107.336 110.369C107.25 110.54 107.164 110.625 107.079 110.71C106.993 110.795 106.908 110.795 106.737 110.795C106.651 110.795 106.48 110.795 106.395 110.71C106.309 110.71 106.138 110.625 105.967 110.54L105.882 110.455C105.625 110.284 105.454 110.114 105.368 109.943C105.283 109.773 105.368 109.517 105.454 109.261C105.539 109.176 105.539 109.091 105.625 109.006C105.711 108.92 105.796 108.92 105.882 108.835L105.796 108.409C105.625 108.494 105.454 108.494 105.368 108.665C105.283 108.75 105.112 108.92 105.026 109.006C104.941 109.176 104.855 109.347 104.855 109.517C104.855 109.688 104.855 109.858 104.855 110.028C104.941 110.199 104.941 110.284 105.112 110.455C105.197 110.625 105.368 110.71 105.539 110.795L105.967 110.966ZM108.789 108.75L106.309 107.472L106.48 107.045L107.507 107.557L107.592 107.386L106.908 106.193L107.164 105.767L108.02 107.131L109.816 106.875L109.559 107.386L108.02 107.642L107.934 107.813L109.046 108.409L108.789 108.75ZM110.158 105.852L110.329 105.426L108.961 103.295L110.928 104.148L111.099 103.722L108.533 102.614L108.362 103.04L109.73 105.085L107.849 104.318L107.678 104.744L110.158 105.852ZM111.441 102.614L108.789 101.761L108.961 101.335L110.928 102.017L109.388 100.057L109.559 99.6307L112.211 100.483L112.039 100.909L110.072 100.227L111.612 102.188L111.441 102.614ZM108.362 100.994C108.447 100.994 108.533 100.994 108.618 100.994C108.704 100.994 108.789 100.994 108.789 100.909C108.875 100.909 108.875 100.824 108.961 100.739C108.961 100.653 109.046 100.568 109.046 100.568C109.046 100.483 109.046 100.398 109.046 100.398C109.046 100.313 109.046 100.227 109.046 100.227C109.046 100.142 108.961 100.142 108.961 100.057C108.875 99.9716 108.875 99.9716 108.789 99.9716L108.704 100.227C108.789 100.227 108.789 100.313 108.875 100.398C108.875 100.483 108.875 100.568 108.875 100.653C108.875 100.739 108.789 100.824 108.789 100.824C108.704 100.909 108.704 100.909 108.618 100.824L108.362 100.994ZM110.842 94.6023L110.757 94.1762L112.296 93.6648C112.296 93.6648 112.382 93.6648 112.382 93.5796C112.382 93.5796 112.382 93.5796 112.382 93.4943L110.928 92.6421L111.099 92.2159L113.322 93.5796C113.408 93.5796 113.408 93.6648 113.493 93.6648C113.579 93.6648 113.579 93.75 113.579 93.75C113.579 93.8353 113.664 93.8353 113.664 93.9205C113.664 94.0057 113.664 94.0909 113.664 94.0909C113.664 94.1762 113.664 94.1762 113.664 94.2614C113.664 94.3466 113.664 94.3466 113.579 94.4319L113.237 94.3466V94.1762C113.237 94.0909 113.237 94.0909 113.237 94.0057C113.237 93.9205 113.151 93.9205 113.151 93.9205L112.895 93.75C112.895 93.8353 112.809 93.8353 112.809 93.9205C112.724 93.9205 112.724 94.0057 112.638 94.0057L110.842 94.6023ZM113.921 91.5341L111.099 91.2784L111.184 90.8523L112.296 90.9375L112.467 89.5739L111.355 89.4887L111.441 89.0625L114.263 89.3182L114.178 89.7443L112.895 89.6591L112.724 91.0228L114.007 91.108L113.921 91.5341ZM114.178 88.0398H111.355V87.6137H113.408L111.355 86.25V85.8239H114.178V86.25H112.125L114.178 87.6989V88.0398ZM114.178 84.5455H111.355V83.3523C111.355 83.2671 111.355 83.0966 111.355 83.0114C111.355 82.9262 111.441 82.8409 111.526 82.7557C111.612 82.6705 111.697 82.5853 111.783 82.5853C111.868 82.5853 111.954 82.5 112.125 82.5C112.382 82.5 112.553 82.5853 112.724 82.7557C112.809 82.5853 112.895 82.5 112.98 82.4148C113.066 82.3296 113.237 82.3296 113.408 82.3296C113.579 82.3296 113.664 82.3296 113.75 82.4148C113.836 82.5 113.921 82.5 114.007 82.5853C114.092 82.6705 114.092 82.7557 114.178 82.8409C114.178 82.9262 114.263 83.0966 114.263 83.1818L114.178 84.5455ZM113.836 84.1193V83.2671C113.836 83.0966 113.836 83.0114 113.75 82.9262C113.664 82.8409 113.579 82.8409 113.408 82.8409C113.237 82.8409 113.151 82.8409 113.066 82.9262C112.98 83.0114 112.98 83.0966 112.98 83.2671V84.1193H113.836ZM112.553 84.1193V83.4375C112.553 83.3523 112.553 83.2671 112.467 83.1818C112.382 83.0966 112.296 83.0966 112.125 83.0966C112.039 83.0966 111.954 83.0966 111.868 83.1818C111.868 83.2671 111.783 83.3523 111.783 83.4375V84.2046H112.553V84.1193ZM114.178 81.2216H111.355V79.1762L111.783 79.3466V80.7955H112.467V79.4318H112.895V80.7955H113.75V79.1762H114.178V81.2216ZM114.178 78.0682H111.355V76.7046C111.355 76.5341 111.355 76.4489 111.441 76.3637C111.526 76.2784 111.526 76.1932 111.612 76.108C111.697 76.0228 111.783 76.0228 111.868 75.9375C111.954 75.9375 112.125 75.8523 112.211 75.8523C112.296 75.8523 112.467 75.8523 112.553 75.9375C112.638 75.9375 112.724 76.0228 112.809 76.108C112.895 76.1932 112.98 76.2784 112.98 76.3637C112.98 76.4489 113.066 76.6193 113.066 76.7046V77.6421H114.092L114.178 78.0682ZM112.809 77.5568V76.7898C112.809 76.6193 112.809 76.4489 112.724 76.3637C112.638 76.2784 112.553 76.2784 112.382 76.2784C112.211 76.2784 112.125 76.3637 112.039 76.4489C111.954 76.5341 111.954 76.7046 111.954 76.7898V77.5568H112.809ZM112.809 74.9148H112.638C112.467 74.9148 112.211 74.9148 112.125 74.8296C111.954 74.7443 111.783 74.6591 111.697 74.5739C111.612 74.4887 111.526 74.3182 111.441 74.1478C111.355 73.9773 111.355 73.8068 111.355 73.5512C111.355 73.3807 111.355 73.2103 111.441 73.0398C111.526 72.8693 111.612 72.7841 111.697 72.6137L112.039 72.9546C111.954 73.0398 111.868 73.125 111.868 73.2103C111.868 73.2955 111.783 73.3807 111.783 73.5512C111.783 73.8068 111.868 74.0625 112.039 74.1478C112.211 74.3182 112.382 74.3182 112.724 74.3182H112.895C113.066 74.3182 113.237 74.3182 113.322 74.3182C113.408 74.3182 113.579 74.233 113.664 74.233C113.75 74.1478 113.836 74.0625 113.836 73.9773C113.921 73.8921 113.921 73.7216 113.921 73.5512C113.921 73.4659 113.921 73.2955 113.921 73.2103C113.921 73.125 113.836 73.0398 113.75 72.9546L114.007 72.6137C114.092 72.6989 114.263 72.8693 114.263 73.0398C114.349 73.2103 114.349 73.3807 114.349 73.5512C114.349 73.8068 114.349 73.9773 114.263 74.1478C114.178 74.3182 114.092 74.4887 114.007 74.5739C113.921 74.6591 113.75 74.7443 113.579 74.8296C113.237 74.9148 113.066 74.9148 112.809 74.9148ZM114.178 71.5909H111.355V71.1648H113.408L111.355 69.8012V69.375H114.178V69.8012H112.125L114.178 71.1648V71.5909ZM111.868 68.2671H111.441V65.9659L111.868 66.1364V66.9034H114.263V67.3296H111.868V68.2671ZM114.178 65.0284H111.355V62.983L111.783 63.1534V64.6023H112.467V63.2387H112.895V64.6023H113.75V62.983H114.178V65.0284ZM111.868 61.9603H111.441V59.6591L111.868 59.8296V60.5966H114.263V61.0228H111.868V61.9603Z" fill="white"/>
<path id="Vector_23" d="M58.5 107.642L57.7303 107.813L57.5592 106.96L58.9276 106.534H59.6118V111.222H58.5855V107.642H58.5Z" fill="white"/>
<path id="Vector_24" d="M60.6382 110.795L61.1513 110.028C61.4934 110.284 61.75 110.455 62.1776 110.455C62.7763 110.455 63.0329 110.028 63.1184 109.432C62.8619 109.602 62.6053 109.773 62.1776 109.773C61.1513 109.773 60.5526 109.176 60.5526 108.239C60.5526 107.301 61.2369 106.619 62.3487 106.619C62.9474 106.619 63.375 106.79 63.7171 107.131C64.0592 107.472 64.2303 107.983 64.2303 108.92C64.2303 110.455 63.5461 111.477 62.1776 111.477C61.4934 111.392 61.0658 111.136 60.6382 110.795ZM63.1184 108.153C63.1184 107.727 62.7763 107.472 62.2632 107.472C61.75 107.472 61.4934 107.727 61.4934 108.153C61.4934 108.58 61.8355 108.835 62.2632 108.835C62.8619 108.835 63.1184 108.58 63.1184 108.153Z" fill="white"/>
<path id="Vector_25" d="M64.8289 110.455L66.3684 109.176C66.9671 108.665 67.1382 108.409 67.1382 108.068C67.1382 107.642 66.8816 107.472 66.5395 107.472C66.1974 107.472 65.9408 107.642 65.5987 108.068L64.9145 107.472C65.3421 106.875 65.8553 106.534 66.625 106.534C67.5658 106.534 68.25 107.131 68.25 107.983C68.25 108.75 67.8224 109.176 67.0526 109.773L66.2829 110.369H68.3355V111.222H64.9145V110.455H64.8289Z" fill="white"/>
<path id="Vector_26" d="M68.9342 109.006C68.9342 107.642 69.7895 106.619 70.9868 106.619C72.1842 106.619 73.0395 107.642 73.0395 109.006C73.0395 110.369 72.1842 111.392 70.9868 111.392C69.7895 111.392 68.9342 110.369 68.9342 109.006ZM72.0131 109.006C72.0131 108.153 71.5855 107.557 70.9868 107.557C70.3882 107.557 69.9605 108.153 69.9605 109.006C69.9605 109.858 70.3882 110.455 70.9868 110.455C71.671 110.455 72.0131 109.858 72.0131 109.006Z" fill="white"/>
</g>
</g>
</svg>
