<svg width="42" height="43" viewBox="0 0 42 43" fill="none" xmlns="http://www.w3.org/2000/svg">
<g id="Glyph">
<path id="XMLID_328_" d="M38.4892 16.6506C38.187 15.7455 37.4233 15.0962 36.4976 14.9548L27.1004 13.5469L22.8704 4.56756C22.45 3.67785 21.5898 3.125 20.6243 3.125C19.6587 3.125 18.7986 3.67785 18.3782 4.56756L14.2099 13.5148L4.75095 14.9548C3.82524 15.0962 3.06282 15.7455 2.75939 16.6506C2.44954 17.5802 2.67839 18.5882 3.35724 19.2812L10.1985 26.2831L8.58236 36.1522C8.42164 37.1384 8.82021 38.1039 9.62506 38.6709C10.3991 39.2199 11.3942 39.2739 12.2222 38.8175L20.5651 34.1581L29.0264 38.8175C29.8569 39.2739 30.8495 39.2174 31.6235 38.6709C32.4284 38.1039 32.8282 37.1384 32.6662 36.1522L31.0475 26.2703L37.8913 19.2812C38.5702 18.5882 38.799 17.5802 38.4892 16.6506Z" fill="#939393"/>
</g>
</svg>
